<?xml version="1.0" encoding="UTF-8" standalone="no"?>
<svg
   xmlns:dc="http://purl.org/dc/elements/1.1/"
   xmlns:cc="http://creativecommons.org/ns#"
   xmlns:rdf="http://www.w3.org/1999/02/22-rdf-syntax-ns#"
   xmlns:svg="http://www.w3.org/2000/svg"
   xmlns="http://www.w3.org/2000/svg"
   id="svg4323"
   version="1.1"
   viewBox="0 0 210 297"
   height="297mm"
   width="210mm">
  <defs
     id="defs4317">
    <clipPath
       clipPathUnits="userSpaceOnUse"
       id="clipPath4341">
      <path
         d="M 8.871e-6,0 H 595.32001 V 841.92 H 8.871e-6 Z"
         id="path4339"
         style="clip-rule:evenodd" />
    </clipPath>
    <clipPath
       clipPathUnits="userSpaceOnUse"
       id="clipPath4375">
      <path
         d="M 70.8,508.2 H 524.4 V 771.12 H 70.8 Z"
         id="path4373"
         style="clip-rule:evenodd" />
    </clipPath>
    <clipPath
       clipPathUnits="userSpaceOnUse"
       id="clipPath4387">
      <path
         d="M 70.8,508.2 H 524.4 V 771.12 H 70.8 Z"
         id="path4385"
         style="clip-rule:evenodd" />
    </clipPath>
    <clipPath
       clipPathUnits="userSpaceOnUse"
       id="clipPath4399">
      <path
         d="M 70.8,508.2 H 524.4 V 771.12 H 70.8 Z"
         id="path4397"
         style="clip-rule:evenodd" />
    </clipPath>
    <clipPath
       clipPathUnits="userSpaceOnUse"
       id="clipPath4411">
      <path
         d="M 70.8,508.2 H 524.4 V 771.12 H 70.8 Z"
         id="path4409"
         style="clip-rule:evenodd" />
    </clipPath>
    <clipPath
       clipPathUnits="userSpaceOnUse"
       id="clipPath4423">
      <path
         d="M 70.8,508.2 H 524.4 V 771.12 H 70.8 Z"
         id="path4421"
         style="clip-rule:evenodd" />
    </clipPath>
    <clipPath
       clipPathUnits="userSpaceOnUse"
       id="clipPath4435">
      <path
         d="M 70.8,508.2 H 524.4 V 771.12 H 70.8 Z"
         id="path4433"
         style="clip-rule:evenodd" />
    </clipPath>
    <clipPath
       clipPathUnits="userSpaceOnUse"
       id="clipPath4451">
      <path
         d="M 70.8,508.2 H 524.4 V 771.12 H 70.8 Z"
         id="path4449"
         style="clip-rule:evenodd" />
    </clipPath>
    <clipPath
       clipPathUnits="userSpaceOnUse"
       id="clipPath4467">
      <path
         d="M 70.8,508.2 H 524.4 V 771.12 H 70.8 Z"
         id="path4465"
         style="clip-rule:evenodd" />
    </clipPath>
    <clipPath
       clipPathUnits="userSpaceOnUse"
       id="clipPath4483">
      <path
         d="M 70.8,508.2 H 524.4 V 771.12 H 70.8 Z"
         id="path4481"
         style="clip-rule:evenodd" />
    </clipPath>
    <clipPath
       clipPathUnits="userSpaceOnUse"
       id="clipPath4499">
      <path
         d="M 70.8,508.2 H 524.4 V 771.12 H 70.8 Z"
         id="path4497"
         style="clip-rule:evenodd" />
    </clipPath>
    <clipPath
       clipPathUnits="userSpaceOnUse"
       id="clipPath4515">
      <path
         d="M 70.8,508.2 H 524.4 V 771.12 H 70.8 Z"
         id="path4513"
         style="clip-rule:evenodd" />
    </clipPath>
    <clipPath
       clipPathUnits="userSpaceOnUse"
       id="clipPath4531">
      <path
         d="M 70.8,508.2 H 524.4 V 771.12 H 70.8 Z"
         id="path4529"
         style="clip-rule:evenodd" />
    </clipPath>
    <clipPath
       clipPathUnits="userSpaceOnUse"
       id="clipPath4547">
      <path
         d="M 70.8,508.2 H 524.4 V 771.12 H 70.8 Z"
         id="path4545"
         style="clip-rule:evenodd" />
    </clipPath>
    <clipPath
       clipPathUnits="userSpaceOnUse"
       id="clipPath4559">
      <path
         d="M 0,498 H 595.32 V 771.12 H 0 Z"
         id="path4557"
         style="clip-rule:evenodd" />
    </clipPath>
  </defs>
  <metadata
     id="metadata4320">
    <rdf:RDF>
      <cc:Work
         rdf:about="">
        <dc:format>image/svg+xml</dc:format>
        <dc:type
           rdf:resource="http://purl.org/dc/dcmitype/StillImage" />
        <dc:title></dc:title>
      </cc:Work>
    </rdf:RDF>
  </metadata>
  <g
     id="layer1">
    <g
       id="g4333"
       transform="matrix(0.35277777,0,0,-0.35277777,334.95998,543.75306)">
      <g
         id="g4335">
        <g
           id="g4337"
           clip-path="url(#clipPath4341)" />
      </g>
      <path
         d="m 70.85,508.17 h 453.6 v 262.9 H 70.85 Z"
         style="fill:#2a2a2a;fill-opacity:1;fill-rule:evenodd;stroke:none"
         id="path4343" />
      <path
         d="m 297.65,718.32 c 45.03,0 81.53,-36.5 81.53,-81.53 0,-20.19 -7.49,-39.66 -21.03,-54.65 l -60.5,54.65 z"
         style="fill:#4472c4;fill-opacity:1;fill-rule:evenodd;stroke:none"
         id="path4345" />
      <path
         d="m 297.65,718.32 c 45.03,0 81.53,-36.5 81.53,-81.53 0,-20.19 -7.49,-39.66 -21.03,-54.65 l -60.5,54.65 z"
         style="fill:none;stroke:#ffffff;stroke-width:1.55999994;stroke-linecap:butt;stroke-linejoin:round;stroke-miterlimit:10;stroke-dasharray:none;stroke-opacity:1"
         id="path4347" />
      <path
         d="M 358.15,582.14 C 327.97,548.73 276.41,546.11 243,576.29 c -2.06,1.86 -4.03,3.83 -5.89,5.89 l 60.54,54.61 z"
         style="fill:#ed7d31;fill-opacity:1;fill-rule:evenodd;stroke:none"
         id="path4349" />
      <path
         d="M 358.15,582.14 C 327.97,548.73 276.41,546.11 243,576.29 c -2.06,1.86 -4.03,3.83 -5.89,5.89 l 60.54,54.61 z"
         style="fill:none;stroke:#ffffff;stroke-width:1.55999994;stroke-linecap:butt;stroke-linejoin:round;stroke-miterlimit:10;stroke-dasharray:none;stroke-opacity:1"
         id="path4351" />
      <path
         d="m 237.11,582.18 c -26.84,29.75 -28.08,74.6 -2.92,105.79 l 63.46,-51.18 z"
         style="fill:#a5a5a5;fill-opacity:1;fill-rule:evenodd;stroke:none"
         id="path4353" />
      <path
         d="m 237.11,582.18 c -26.84,29.75 -28.08,74.6 -2.92,105.79 l 63.46,-51.18 z"
         style="fill:none;stroke:#ffffff;stroke-width:1.55999994;stroke-linecap:butt;stroke-linejoin:round;stroke-miterlimit:10;stroke-dasharray:none;stroke-opacity:1"
         id="path4355" />
      <path
         d="m 234.19,687.97 c 8.93,11.08 20.6,19.62 33.86,24.79 l 29.6,-75.97 z"
         style="fill:#ffc000;fill-opacity:1;fill-rule:evenodd;stroke:none"
         id="path4357" />
      <path
         d="m 234.19,687.97 c 8.93,11.08 20.6,19.62 33.86,24.79 l 29.6,-75.97 z"
         style="fill:none;stroke:#ffffff;stroke-width:1.55999994;stroke-linecap:butt;stroke-linejoin:round;stroke-miterlimit:10;stroke-dasharray:none;stroke-opacity:1"
         id="path4359" />
      <path
         d="m 268.05,712.76 c 7.54,2.94 15.48,4.74 23.56,5.34 l 6.04,-81.31 z"
         style="fill:#5b9bd5;fill-opacity:1;fill-rule:evenodd;stroke:none"
         id="path4361" />
      <path
         d="m 268.05,712.76 c 7.54,2.94 15.48,4.74 23.56,5.34 l 6.04,-81.31 z"
         style="fill:none;stroke:#ffffff;stroke-width:1.55999994;stroke-linecap:butt;stroke-linejoin:round;stroke-miterlimit:10;stroke-dasharray:none;stroke-opacity:1"
         id="path4363" />
      <path
         d="m 291.61,718.1 c 2.01,0.15 4.02,0.22 6.04,0.22 v -81.53 z"
         style="fill:#70ad47;fill-opacity:1;fill-rule:evenodd;stroke:none"
         id="path4365" />
      <path
         d="m 291.61,718.1 c 2.01,0.15 4.02,0.22 6.04,0.22 v -81.53 z"
         style="fill:none;stroke:#ffffff;stroke-width:1.55999994;stroke-linecap:butt;stroke-linejoin:round;stroke-miterlimit:10;stroke-dasharray:none;stroke-opacity:1"
         id="path4367" />
      <g
         id="g4369">
        <g
           id="g4371"
           clip-path="url(#clipPath4375)">
          <text
             transform="matrix(1,0,0,-1,379.25,671.28)"
             style="font-variant:normal;font-weight:normal;font-size:9px;font-family:Calibri;-inkscape-font-specification:Calibri;writing-mode:lr-tb;fill:#ffffff;fill-opacity:1;fill-rule:nonzero;stroke:none"
             id="text4379">
            <tspan
               x="0 4.5630002 9.1260004 11.376 15.939 20.502001"
               y="0"
               id="tspan4377">36,05%</tspan>
          </text>
        </g>
      </g>
      <g
         id="g4381">
        <g
           id="g4383"
           clip-path="url(#clipPath4387)">
          <text
             transform="matrix(1,0,0,-1,284.11,541.94)"
             style="font-variant:normal;font-weight:normal;font-size:9px;font-family:Calibri;-inkscape-font-specification:Calibri;writing-mode:lr-tb;fill:#ffffff;fill-opacity:1;fill-rule:nonzero;stroke:none"
             id="text4391">
            <tspan
               x="0 4.5630002 9.1260004 11.376 15.939 20.502001"
               y="0"
               id="tspan4389">26,16%</tspan>
          </text>
        </g>
      </g>
      <g
         id="g4393">
        <g
           id="g4395"
           clip-path="url(#clipPath4399)">
          <text
             transform="matrix(1,0,0,-1,181.7,631.2)"
             style="font-variant:normal;font-weight:normal;font-size:9px;font-family:Calibri;-inkscape-font-specification:Calibri;writing-mode:lr-tb;fill:#ffffff;fill-opacity:1;fill-rule:nonzero;stroke:none"
             id="text4403">
            <tspan
               x="0 4.5630002 9.1260004 11.376 15.939 20.502001"
               y="0"
               id="tspan4401">22,09%</tspan>
          </text>
        </g>
      </g>
      <g
         id="g4405">
        <g
           id="g4407"
           clip-path="url(#clipPath4411)">
          <text
             transform="matrix(1,0,0,-1,221.35,709.15)"
             style="font-variant:normal;font-weight:normal;font-size:9px;font-family:Calibri;-inkscape-font-specification:Calibri;writing-mode:lr-tb;fill:#ffffff;fill-opacity:1;fill-rule:nonzero;stroke:none"
             id="text4415">
            <tspan
               x="0 4.5630002 6.8130002 11.376 15.939"
               y="0"
               id="tspan4413">8,14%</tspan>
          </text>
        </g>
      </g>
      <g
         id="g4417">
        <g
           id="g4419"
           clip-path="url(#clipPath4423)">
          <text
             transform="matrix(1,0,0,-1,257.64,723.43)"
             style="font-variant:normal;font-weight:normal;font-size:9px;font-family:Calibri;-inkscape-font-specification:Calibri;writing-mode:lr-tb;fill:#ffffff;fill-opacity:1;fill-rule:nonzero;stroke:none"
             id="text4427">
            <tspan
               x="0 4.5630002 6.8130002 11.376 15.939"
               y="0"
               id="tspan4425">4,65%</tspan>
          </text>
        </g>
      </g>
      <g
         id="g4429">
        <g
           id="g4431"
           clip-path="url(#clipPath4435)">
          <text
             transform="matrix(1,0,0,-1,281.64,725.47)"
             style="font-variant:normal;font-weight:normal;font-size:9px;font-family:Calibri;-inkscape-font-specification:Calibri;writing-mode:lr-tb;fill:#ffffff;fill-opacity:1;fill-rule:nonzero;stroke:none"
             id="text4439">
            <tspan
               x="0 4.5630002 6.8130002 11.376 15.939"
               y="0"
               id="tspan4437">1,16%</tspan>
          </text>
        </g>
      </g>
      <path
         d="m 239.17,742.54 h 116.96 v 22.53 H 239.17 Z"
         style="fill:#2a2a2a;fill-opacity:1;fill-rule:evenodd;stroke:none"
         id="path4441" />
      <path
         d="m 239.17,742.54 h 116.96 v 22.53 H 239.17 Z"
         style="fill:none;stroke:#2a2a2a;stroke-width:1;stroke-linecap:butt;stroke-linejoin:miter;stroke-miterlimit:8;stroke-dasharray:none;stroke-opacity:1"
         id="path4443" />
      <g
         id="g4445">
        <g
           id="g4447"
           clip-path="url(#clipPath4451)">
          <text
             transform="matrix(1,0,0,-1,242.26,748.32)"
             style="font-variant:normal;font-weight:normal;font-size:15.96000004px;font-family:Calibri;-inkscape-font-specification:Calibri;writing-mode:lr-tb;fill:#ffffff;fill-opacity:1;fill-rule:nonzero;stroke:none"
             id="text4455">
            <tspan
               x="0 7.0862398 14.31612 22.69512 30.6432 36.88356 40.554359 48.933361 56.881439 60.4884 68.867401 72.586082 79.672318 88.083237 96.462242 104.10708"
               y="0"
               id="tspan4453">Types de bivouac</tspan>
          </text>
        </g>
      </g>
      <path
         d="m 108.71,520.14 h 4.9433 v 4.9433 H 108.71 Z"
         style="fill:#4472c4;fill-opacity:1;fill-rule:evenodd;stroke:none"
         id="path4457" />
      <path
         d="m 108.71,520.14 h 4.9433 v 4.9433 H 108.71 Z"
         style="fill:none;stroke:#ffffff;stroke-width:1.5;stroke-linecap:butt;stroke-linejoin:round;stroke-miterlimit:8;stroke-dasharray:none;stroke-opacity:1"
         id="path4459" />
      <g
         id="g4461">
        <g
           id="g4463"
           clip-path="url(#clipPath4467)">
          <text
             transform="matrix(1,0,0,-1,115.78,520.03)"
             style="font-variant:normal;font-weight:normal;font-size:9px;font-family:Calibri;-inkscape-font-specification:Calibri;writing-mode:lr-tb;fill:#ffffff;fill-opacity:1;fill-rule:nonzero;stroke:none"
             id="text4471">
            <tspan
               x="0 8.0279999 12.339 14.409 21.6 25.910999 29.052"
               y="0"
               id="tspan4469">Walmart</tspan>
          </text>
        </g>
      </g>
      <path
         d="m 160.24,520.14 h 4.9433 v 4.9433 H 160.24 Z"
         style="fill:#ed7d31;fill-opacity:1;fill-rule:evenodd;stroke:none"
         id="path4473" />
      <path
         d="m 160.24,520.14 h 4.9433 v 4.9433 H 160.24 Z"
         style="fill:none;stroke:#ffffff;stroke-width:1.5;stroke-linecap:butt;stroke-linejoin:round;stroke-miterlimit:8;stroke-dasharray:none;stroke-opacity:1"
         id="path4475" />
      <g
         id="g4477">
        <g
           id="g4479"
           clip-path="url(#clipPath4483)">
          <text
             transform="matrix(1,0,0,-1,167.3,520.03)"
             style="font-variant:normal;font-weight:normal;font-size:9px;font-family:Calibri;-inkscape-font-specification:Calibri;writing-mode:lr-tb;fill:#ffffff;fill-opacity:1;fill-rule:nonzero;stroke:none"
             id="text4487">
            <tspan
               x="0 4.0770001 8.3879995 13.185 17.253 21.563999 25.802999"
               y="0"
               id="tspan4485">Sauvage</tspan>
          </text>
        </g>
      </g>
      <path
         d="m 210,520.14 h 4.9433 v 4.9433 H 210 Z"
         style="fill:#a5a5a5;fill-opacity:1;fill-rule:evenodd;stroke:none"
         id="path4489" />
      <path
         d="m 210,520.14 h 4.9433 v 4.9433 H 210 Z"
         style="fill:none;stroke:#ffffff;stroke-width:1.5;stroke-linecap:butt;stroke-linejoin:round;stroke-miterlimit:8;stroke-dasharray:none;stroke-opacity:1"
         id="path4491" />
      <g
         id="g4493">
        <g
           id="g4495"
           clip-path="url(#clipPath4499)">
          <text
             transform="matrix(1,0,0,-1,217.08,520.03)"
             style="font-variant:normal;font-weight:normal;font-size:9px;font-family:Calibri;-inkscape-font-specification:Calibri;writing-mode:lr-tb;fill:#ffffff;fill-opacity:1;fill-rule:nonzero;stroke:none"
             id="text4503">
            <tspan
               x="0 4.7969999 9.1079998 16.299 21.024 23.040001 27.827999"
               y="0"
               id="tspan4501">Camping</tspan>
          </text>
        </g>
      </g>
      <path
         d="m 261.55,520.14 h 4.9433 v 4.9433 H 261.55 Z"
         style="fill:#ffc000;fill-opacity:1;fill-rule:evenodd;stroke:none"
         id="path4505" />
      <path
         d="m 261.55,520.14 h 4.9433 v 4.9433 H 261.55 Z"
         style="fill:none;stroke:#ffffff;stroke-width:1.5;stroke-linecap:butt;stroke-linejoin:round;stroke-miterlimit:8;stroke-dasharray:none;stroke-opacity:1"
         id="path4507" />
      <g
         id="g4509">
        <g
           id="g4511"
           clip-path="url(#clipPath4515)">
          <text
             transform="matrix(1,0,0,-1,268.66,520.03)"
             style="font-variant:normal;font-weight:normal;font-size:9px;font-family:Calibri;-inkscape-font-specification:Calibri;writing-mode:lr-tb;fill:#ffffff;fill-opacity:1;fill-rule:nonzero;stroke:none"
             id="text4519">
            <tspan
               x="0 4.6529999 8.9910002 12.132 16.191 18.233999 23.021999 27.225 29.259001 33.57 38.268002 41.283001 44.388"
               y="0"
               id="tspan4517">Parking autre</tspan>
          </text>
        </g>
      </g>
      <path
         d="m 329.98,520.14 h 4.9433 v 4.9433 H 329.98 Z"
         style="fill:#5b9bd5;fill-opacity:1;fill-rule:evenodd;stroke:none"
         id="path4521" />
      <path
         d="m 329.98,520.14 h 4.9433 v 4.9433 H 329.98 Z"
         style="fill:none;stroke:#ffffff;stroke-width:1.5;stroke-linecap:butt;stroke-linejoin:round;stroke-miterlimit:8;stroke-dasharray:none;stroke-opacity:1"
         id="path4523" />
      <g
         id="g4525">
        <g
           id="g4527"
           clip-path="url(#clipPath4531)">
          <text
             transform="matrix(1,0,0,-1,337.08,520.03)"
             style="font-variant:normal;font-weight:normal;font-size:9px;font-family:Calibri;-inkscape-font-specification:Calibri;writing-mode:lr-tb;fill:#ffffff;fill-opacity:1;fill-rule:nonzero;stroke:none"
             id="text4535">
            <tspan
               x="0 5.1479998 9.8280001 11.871 16.424999 18.459 23.148001 27.827999 32.616001 34.659 36.702 41.490002 46.169998"
               y="0"
               id="tspan4533">Voie publique</tspan>
          </text>
        </g>
      </g>
      <path
         d="m 400.16,520.14 h 4.9433 v 4.9433 H 400.16 Z"
         style="fill:#70ad47;fill-opacity:1;fill-rule:evenodd;stroke:none"
         id="path4537" />
      <path
         d="m 400.16,520.14 h 4.9433 v 4.9433 H 400.16 Z"
         style="fill:none;stroke:#ffffff;stroke-width:1.5;stroke-linecap:butt;stroke-linejoin:round;stroke-miterlimit:8;stroke-dasharray:none;stroke-opacity:1"
         id="path4539" />
      <g
         id="g4541">
        <g
           id="g4543"
           clip-path="url(#clipPath4547)">
          <text
             transform="matrix(1,0,0,-1,407.28,520.03)"
             style="font-variant:normal;font-weight:normal;font-size:9px;font-family:Calibri;-inkscape-font-specification:Calibri;writing-mode:lr-tb;fill:#ffffff;fill-opacity:1;fill-rule:nonzero;stroke:none"
             id="text4551">
            <tspan
               x="0 5.1570001 7.3080001 10.449 14.868 16.902 20.385 23.499001 27.702 30.816 32.859001 37.539001 42.327 47.007 51.561001 58.644001 63.198002 67.877998 70.892998 72.927002 77.814003"
               y="0"
               id="tspan4549">Aire stationnement RV</tspan>
          </text>
        </g>
      </g>
      <g
         id="g4553">
        <g
           id="g4555"
           clip-path="url(#clipPath4559)">
          <path
             d="m 70.85,508.17 h 453.6 v 262.9 H 70.85 Z"
             style="fill:none;stroke:#d9d9d9;stroke-width:0.75;stroke-linecap:butt;stroke-linejoin:round;stroke-miterlimit:8;stroke-dasharray:none;stroke-opacity:1"
             id="path4561" />
        </g>
      </g>
    </g>
  </g>
</svg>
