<?xml version="1.0" encoding="UTF-8" standalone="no"?>
<svg
   xmlns:dc="http://purl.org/dc/elements/1.1/"
   xmlns:cc="http://creativecommons.org/ns#"
   xmlns:rdf="http://www.w3.org/1999/02/22-rdf-syntax-ns#"
   xmlns:svg="http://www.w3.org/2000/svg"
   xmlns="http://www.w3.org/2000/svg"
   id="svg953"
   version="1.1"
   viewBox="0 0 210 297"
   height="297mm"
   width="210mm">
  <defs
     id="defs947">
    <clipPath
       clipPathUnits="userSpaceOnUse"
       id="clipPath971">
      <path
         d="M 8.871e-6,0 H 595.32001 V 841.92 H 8.871e-6 Z"
         id="path969"
         style="clip-rule:evenodd" />
    </clipPath>
    <clipPath
       clipPathUnits="userSpaceOnUse"
       id="clipPath1005">
      <path
         d="M 70.8,508.2 H 524.4 V 771.12 H 70.8 Z"
         id="path1003"
         style="clip-rule:evenodd" />
    </clipPath>
    <clipPath
       clipPathUnits="userSpaceOnUse"
       id="clipPath1017">
      <path
         d="M 70.8,508.2 H 524.4 V 771.12 H 70.8 Z"
         id="path1015"
         style="clip-rule:evenodd" />
    </clipPath>
    <clipPath
       clipPathUnits="userSpaceOnUse"
       id="clipPath1029">
      <path
         d="M 70.8,508.2 H 524.4 V 771.12 H 70.8 Z"
         id="path1027"
         style="clip-rule:evenodd" />
    </clipPath>
    <clipPath
       clipPathUnits="userSpaceOnUse"
       id="clipPath1041">
      <path
         d="M 70.8,508.2 H 524.4 V 771.12 H 70.8 Z"
         id="path1039"
         style="clip-rule:evenodd" />
    </clipPath>
    <clipPath
       clipPathUnits="userSpaceOnUse"
       id="clipPath1053">
      <path
         d="M 70.8,508.2 H 524.4 V 771.12 H 70.8 Z"
         id="path1051"
         style="clip-rule:evenodd" />
    </clipPath>
    <clipPath
       clipPathUnits="userSpaceOnUse"
       id="clipPath1065">
      <path
         d="M 70.8,508.2 H 524.4 V 771.12 H 70.8 Z"
         id="path1063"
         style="clip-rule:evenodd" />
    </clipPath>
    <clipPath
       clipPathUnits="userSpaceOnUse"
       id="clipPath1081">
      <path
         d="M 70.8,508.2 H 524.4 V 771.12 H 70.8 Z"
         id="path1079"
         style="clip-rule:evenodd" />
    </clipPath>
    <clipPath
       clipPathUnits="userSpaceOnUse"
       id="clipPath1097">
      <path
         d="M 70.8,508.2 H 524.4 V 771.12 H 70.8 Z"
         id="path1095"
         style="clip-rule:evenodd" />
    </clipPath>
    <clipPath
       clipPathUnits="userSpaceOnUse"
       id="clipPath1113">
      <path
         d="M 70.8,508.2 H 524.4 V 771.12 H 70.8 Z"
         id="path1111"
         style="clip-rule:evenodd" />
    </clipPath>
    <clipPath
       clipPathUnits="userSpaceOnUse"
       id="clipPath1129">
      <path
         d="M 70.8,508.2 H 524.4 V 771.12 H 70.8 Z"
         id="path1127"
         style="clip-rule:evenodd" />
    </clipPath>
    <clipPath
       clipPathUnits="userSpaceOnUse"
       id="clipPath1145">
      <path
         d="M 70.8,508.2 H 524.4 V 771.12 H 70.8 Z"
         id="path1143"
         style="clip-rule:evenodd" />
    </clipPath>
    <clipPath
       clipPathUnits="userSpaceOnUse"
       id="clipPath1161">
      <path
         d="M 70.8,508.2 H 524.4 V 771.12 H 70.8 Z"
         id="path1159"
         style="clip-rule:evenodd" />
    </clipPath>
    <clipPath
       clipPathUnits="userSpaceOnUse"
       id="clipPath1177">
      <path
         d="M 70.8,508.2 H 524.4 V 771.12 H 70.8 Z"
         id="path1175"
         style="clip-rule:evenodd" />
    </clipPath>
    <clipPath
       clipPathUnits="userSpaceOnUse"
       id="clipPath1189">
      <path
         d="M 0,498 H 595.32 V 771.12 H 0 Z"
         id="path1187"
         style="clip-rule:evenodd" />
    </clipPath>
  </defs>
  <metadata
     id="metadata950">
    <rdf:RDF>
      <cc:Work
         rdf:about="">
        <dc:format>image/svg+xml</dc:format>
        <dc:type
           rdf:resource="http://purl.org/dc/dcmitype/StillImage" />
        <dc:title></dc:title>
      </cc:Work>
    </rdf:RDF>
  </metadata>
  <g
     id="layer1">
    <g
       id="g963"
       transform="matrix(0.35277777,0,0,-0.35277777,-0.68287143,282.19354)">
      <g
         id="g965">
        <g
           id="g967"
           clip-path="url(#clipPath971)" />
      </g>
      <path
         d="m 70.85,508.17 h 453.6 v 262.9 H 70.85 Z"
         style="fill:#2a2a2a;fill-opacity:1;fill-rule:evenodd;stroke:none"
         id="path973" />
      <path
         d="m 297.65,718.32 c 45.03,0 81.53,-36.5 81.53,-81.53 0,-20.19 -7.49,-39.66 -21.03,-54.65 l -60.5,54.65 z"
         style="fill:#4472c4;fill-opacity:1;fill-rule:evenodd;stroke:none"
         id="path975" />
      <path
         d="m 297.65,718.32 c 45.03,0 81.53,-36.5 81.53,-81.53 0,-20.19 -7.49,-39.66 -21.03,-54.65 l -60.5,54.65 z"
         style="fill:none;stroke:#ffffff;stroke-width:1.55999994;stroke-linecap:butt;stroke-linejoin:round;stroke-miterlimit:10;stroke-dasharray:none;stroke-opacity:1"
         id="path977" />
      <path
         d="M 358.15,582.14 C 327.97,548.73 276.41,546.11 243,576.29 c -2.06,1.86 -4.03,3.83 -5.89,5.89 l 60.54,54.61 z"
         style="fill:#ed7d31;fill-opacity:1;fill-rule:evenodd;stroke:none"
         id="path979" />
      <path
         d="M 358.15,582.14 C 327.97,548.73 276.41,546.11 243,576.29 c -2.06,1.86 -4.03,3.83 -5.89,5.89 l 60.54,54.61 z"
         style="fill:none;stroke:#ffffff;stroke-width:1.55999994;stroke-linecap:butt;stroke-linejoin:round;stroke-miterlimit:10;stroke-dasharray:none;stroke-opacity:1"
         id="path981" />
      <path
         d="m 237.11,582.18 c -26.84,29.75 -28.08,74.6 -2.92,105.79 l 63.46,-51.18 z"
         style="fill:#a5a5a5;fill-opacity:1;fill-rule:evenodd;stroke:none"
         id="path983" />
      <path
         d="m 237.11,582.18 c -26.84,29.75 -28.08,74.6 -2.92,105.79 l 63.46,-51.18 z"
         style="fill:none;stroke:#ffffff;stroke-width:1.55999994;stroke-linecap:butt;stroke-linejoin:round;stroke-miterlimit:10;stroke-dasharray:none;stroke-opacity:1"
         id="path985" />
      <path
         d="m 234.19,687.97 c 8.93,11.08 20.6,19.62 33.86,24.79 l 29.6,-75.97 z"
         style="fill:#ffc000;fill-opacity:1;fill-rule:evenodd;stroke:none"
         id="path987" />
      <path
         d="m 234.19,687.97 c 8.93,11.08 20.6,19.62 33.86,24.79 l 29.6,-75.97 z"
         style="fill:none;stroke:#ffffff;stroke-width:1.55999994;stroke-linecap:butt;stroke-linejoin:round;stroke-miterlimit:10;stroke-dasharray:none;stroke-opacity:1"
         id="path989" />
      <path
         d="m 268.05,712.76 c 7.54,2.94 15.48,4.74 23.56,5.34 l 6.04,-81.31 z"
         style="fill:#5b9bd5;fill-opacity:1;fill-rule:evenodd;stroke:none"
         id="path991" />
      <path
         d="m 268.05,712.76 c 7.54,2.94 15.48,4.74 23.56,5.34 l 6.04,-81.31 z"
         style="fill:none;stroke:#ffffff;stroke-width:1.55999994;stroke-linecap:butt;stroke-linejoin:round;stroke-miterlimit:10;stroke-dasharray:none;stroke-opacity:1"
         id="path993" />
      <path
         d="m 291.61,718.1 c 2.01,0.15 4.02,0.22 6.04,0.22 v -81.53 z"
         style="fill:#70ad47;fill-opacity:1;fill-rule:evenodd;stroke:none"
         id="path995" />
      <path
         d="m 291.61,718.1 c 2.01,0.15 4.02,0.22 6.04,0.22 v -81.53 z"
         style="fill:none;stroke:#ffffff;stroke-width:1.55999994;stroke-linecap:butt;stroke-linejoin:round;stroke-miterlimit:10;stroke-dasharray:none;stroke-opacity:1"
         id="path997" />
      <g
         id="g999">
        <g
           id="g1001"
           clip-path="url(#clipPath1005)">
          <text
             transform="matrix(1,0,0,-1,379.25,671.28)"
             style="font-variant:normal;font-weight:normal;font-size:9px;font-family:Calibri;-inkscape-font-specification:Calibri;writing-mode:lr-tb;fill:#ffffff;fill-opacity:1;fill-rule:nonzero;stroke:none"
             id="text1009">
            <tspan
               x="0 4.5630002 9.1260004 11.376 15.939 20.502001"
               y="0"
               id="tspan1007">36,05%</tspan>
          </text>
        </g>
      </g>
      <g
         id="g1011">
        <g
           id="g1013"
           clip-path="url(#clipPath1017)">
          <text
             transform="matrix(1,0,0,-1,284.11,541.94)"
             style="font-variant:normal;font-weight:normal;font-size:9px;font-family:Calibri;-inkscape-font-specification:Calibri;writing-mode:lr-tb;fill:#ffffff;fill-opacity:1;fill-rule:nonzero;stroke:none"
             id="text1021">
            <tspan
               x="0 4.5630002 9.1260004 11.376 15.939 20.502001"
               y="0"
               id="tspan1019">26,16%</tspan>
          </text>
        </g>
      </g>
      <g
         id="g1023">
        <g
           id="g1025"
           clip-path="url(#clipPath1029)">
          <text
             transform="matrix(1,0,0,-1,181.7,631.2)"
             style="font-variant:normal;font-weight:normal;font-size:9px;font-family:Calibri;-inkscape-font-specification:Calibri;writing-mode:lr-tb;fill:#ffffff;fill-opacity:1;fill-rule:nonzero;stroke:none"
             id="text1033">
            <tspan
               x="0 4.5630002 9.1260004 11.376 15.939 20.502001"
               y="0"
               id="tspan1031">22,09%</tspan>
          </text>
        </g>
      </g>
      <g
         id="g1035">
        <g
           id="g1037"
           clip-path="url(#clipPath1041)">
          <text
             transform="matrix(1,0,0,-1,221.35,709.15)"
             style="font-variant:normal;font-weight:normal;font-size:9px;font-family:Calibri;-inkscape-font-specification:Calibri;writing-mode:lr-tb;fill:#ffffff;fill-opacity:1;fill-rule:nonzero;stroke:none"
             id="text1045">
            <tspan
               x="0 4.5630002 6.8130002 11.376 15.939"
               y="0"
               id="tspan1043">8,14%</tspan>
          </text>
        </g>
      </g>
      <g
         id="g1047">
        <g
           id="g1049"
           clip-path="url(#clipPath1053)">
          <text
             transform="matrix(1,0,0,-1,257.64,723.43)"
             style="font-variant:normal;font-weight:normal;font-size:9px;font-family:Calibri;-inkscape-font-specification:Calibri;writing-mode:lr-tb;fill:#ffffff;fill-opacity:1;fill-rule:nonzero;stroke:none"
             id="text1057">
            <tspan
               x="0 4.5630002 6.8130002 11.376 15.939"
               y="0"
               id="tspan1055">4,65%</tspan>
          </text>
        </g>
      </g>
      <g
         id="g1059">
        <g
           id="g1061"
           clip-path="url(#clipPath1065)">
          <text
             transform="matrix(1,0,0,-1,281.64,725.47)"
             style="font-variant:normal;font-weight:normal;font-size:9px;font-family:Calibri;-inkscape-font-specification:Calibri;writing-mode:lr-tb;fill:#ffffff;fill-opacity:1;fill-rule:nonzero;stroke:none"
             id="text1069">
            <tspan
               x="0 4.5630002 6.8130002 11.376 15.939"
               y="0"
               id="tspan1067">1,16%</tspan>
          </text>
        </g>
      </g>
      <path
         d="m 239.17,742.54 h 116.96 v 22.53 H 239.17 Z"
         style="fill:#2a2a2a;fill-opacity:1;fill-rule:evenodd;stroke:none"
         id="path1071" />
      <path
         d="m 239.17,742.54 h 116.96 v 22.53 H 239.17 Z"
         style="fill:none;stroke:#2a2a2a;stroke-width:1;stroke-linecap:butt;stroke-linejoin:miter;stroke-miterlimit:8;stroke-dasharray:none;stroke-opacity:1"
         id="path1073" />
      <g
         id="g1075">
        <g
           id="g1077"
           clip-path="url(#clipPath1081)">
          <text
             transform="matrix(1,0,0,-1,242.26,748.32)"
             style="font-variant:normal;font-weight:normal;font-size:15.96000004px;font-family:Calibri;-inkscape-font-specification:Calibri;writing-mode:lr-tb;fill:#ffffff;fill-opacity:1;fill-rule:nonzero;stroke:none"
             id="text1085">
            <tspan
               x="0 7.0862398 14.31612 22.69512 30.6432 36.88356 40.554359 48.933361 56.881439 60.4884 68.867401 72.586082 79.672318 88.083237 96.462242 104.10708"
               y="0"
               id="tspan1083">Types de bivouac</tspan>
          </text>
        </g>
      </g>
      <path
         d="m 108.71,520.14 h 4.9433 v 4.9433 H 108.71 Z"
         style="fill:#4472c4;fill-opacity:1;fill-rule:evenodd;stroke:none"
         id="path1087" />
      <path
         d="m 108.71,520.14 h 4.9433 v 4.9433 H 108.71 Z"
         style="fill:none;stroke:#ffffff;stroke-width:1.5;stroke-linecap:butt;stroke-linejoin:round;stroke-miterlimit:8;stroke-dasharray:none;stroke-opacity:1"
         id="path1089" />
      <g
         id="g1091">
        <g
           id="g1093"
           clip-path="url(#clipPath1097)">
          <text
             transform="matrix(1,0,0,-1,115.78,520.03)"
             style="font-variant:normal;font-weight:normal;font-size:9px;font-family:Calibri;-inkscape-font-specification:Calibri;writing-mode:lr-tb;fill:#ffffff;fill-opacity:1;fill-rule:nonzero;stroke:none"
             id="text1101">
            <tspan
               x="0 8.0279999 12.339 14.409 21.6 25.910999 29.052"
               y="0"
               id="tspan1099">Walmart</tspan>
          </text>
        </g>
      </g>
      <path
         d="m 160.24,520.14 h 4.9433 v 4.9433 H 160.24 Z"
         style="fill:#ed7d31;fill-opacity:1;fill-rule:evenodd;stroke:none"
         id="path1103" />
      <path
         d="m 160.24,520.14 h 4.9433 v 4.9433 H 160.24 Z"
         style="fill:none;stroke:#ffffff;stroke-width:1.5;stroke-linecap:butt;stroke-linejoin:round;stroke-miterlimit:8;stroke-dasharray:none;stroke-opacity:1"
         id="path1105" />
      <g
         id="g1107">
        <g
           id="g1109"
           clip-path="url(#clipPath1113)">
          <text
             transform="matrix(1,0,0,-1,167.3,520.03)"
             style="font-variant:normal;font-weight:normal;font-size:9px;font-family:Calibri;-inkscape-font-specification:Calibri;writing-mode:lr-tb;fill:#ffffff;fill-opacity:1;fill-rule:nonzero;stroke:none"
             id="text1117">
            <tspan
               x="0 4.0770001 8.3879995 13.185 17.253 21.563999 25.802999"
               y="0"
               id="tspan1115">Sauvage</tspan>
          </text>
        </g>
      </g>
      <path
         d="m 210,520.14 h 4.9433 v 4.9433 H 210 Z"
         style="fill:#a5a5a5;fill-opacity:1;fill-rule:evenodd;stroke:none"
         id="path1119" />
      <path
         d="m 210,520.14 h 4.9433 v 4.9433 H 210 Z"
         style="fill:none;stroke:#ffffff;stroke-width:1.5;stroke-linecap:butt;stroke-linejoin:round;stroke-miterlimit:8;stroke-dasharray:none;stroke-opacity:1"
         id="path1121" />
      <g
         id="g1123">
        <g
           id="g1125"
           clip-path="url(#clipPath1129)">
          <text
             transform="matrix(1,0,0,-1,217.08,520.03)"
             style="font-variant:normal;font-weight:normal;font-size:9px;font-family:Calibri;-inkscape-font-specification:Calibri;writing-mode:lr-tb;fill:#ffffff;fill-opacity:1;fill-rule:nonzero;stroke:none"
             id="text1133">
            <tspan
               x="0 4.7969999 9.1079998 16.299 21.024 23.040001 27.827999"
               y="0"
               id="tspan1131">Camping</tspan>
          </text>
        </g>
      </g>
      <path
         d="m 261.55,520.14 h 4.9433 v 4.9433 H 261.55 Z"
         style="fill:#ffc000;fill-opacity:1;fill-rule:evenodd;stroke:none"
         id="path1135" />
      <path
         d="m 261.55,520.14 h 4.9433 v 4.9433 H 261.55 Z"
         style="fill:none;stroke:#ffffff;stroke-width:1.5;stroke-linecap:butt;stroke-linejoin:round;stroke-miterlimit:8;stroke-dasharray:none;stroke-opacity:1"
         id="path1137" />
      <g
         id="g1139">
        <g
           id="g1141"
           clip-path="url(#clipPath1145)">
          <text
             transform="matrix(1,0,0,-1,268.66,520.03)"
             style="font-variant:normal;font-weight:normal;font-size:9px;font-family:Calibri;-inkscape-font-specification:Calibri;writing-mode:lr-tb;fill:#ffffff;fill-opacity:1;fill-rule:nonzero;stroke:none"
             id="text1149">
            <tspan
               x="0 4.6529999 8.9910002 12.132 16.191 18.233999 23.021999 27.225 29.259001 33.57 38.268002 41.283001 44.388"
               y="0"
               id="tspan1147">Parking autre</tspan>
          </text>
        </g>
      </g>
      <path
         d="m 329.98,520.14 h 4.9433 v 4.9433 H 329.98 Z"
         style="fill:#5b9bd5;fill-opacity:1;fill-rule:evenodd;stroke:none"
         id="path1151" />
      <path
         d="m 329.98,520.14 h 4.9433 v 4.9433 H 329.98 Z"
         style="fill:none;stroke:#ffffff;stroke-width:1.5;stroke-linecap:butt;stroke-linejoin:round;stroke-miterlimit:8;stroke-dasharray:none;stroke-opacity:1"
         id="path1153" />
      <g
         id="g1155">
        <g
           id="g1157"
           clip-path="url(#clipPath1161)">
          <text
             transform="matrix(1,0,0,-1,337.08,520.03)"
             style="font-variant:normal;font-weight:normal;font-size:9px;font-family:Calibri;-inkscape-font-specification:Calibri;writing-mode:lr-tb;fill:#ffffff;fill-opacity:1;fill-rule:nonzero;stroke:none"
             id="text1165">
            <tspan
               x="0 5.1479998 9.8280001 11.871 16.424999 18.459 23.148001 27.827999 32.616001 34.659 36.702 41.490002 46.169998"
               y="0"
               id="tspan1163">Voie publique</tspan>
          </text>
        </g>
      </g>
      <path
         d="m 400.16,520.14 h 4.9433 v 4.9433 H 400.16 Z"
         style="fill:#70ad47;fill-opacity:1;fill-rule:evenodd;stroke:none"
         id="path1167" />
      <path
         d="m 400.16,520.14 h 4.9433 v 4.9433 H 400.16 Z"
         style="fill:none;stroke:#ffffff;stroke-width:1.5;stroke-linecap:butt;stroke-linejoin:round;stroke-miterlimit:8;stroke-dasharray:none;stroke-opacity:1"
         id="path1169" />
      <g
         id="g1171">
        <g
           id="g1173"
           clip-path="url(#clipPath1177)">
          <text
             transform="matrix(1,0,0,-1,407.28,520.03)"
             style="font-variant:normal;font-weight:normal;font-size:9px;font-family:Calibri;-inkscape-font-specification:Calibri;writing-mode:lr-tb;fill:#ffffff;fill-opacity:1;fill-rule:nonzero;stroke:none"
             id="text1181">
            <tspan
               x="0 5.1570001 7.3080001 10.449 14.868 16.902 20.385 23.499001 27.702 30.816 32.859001 37.539001 42.327 47.007 51.561001 58.644001 63.198002 67.877998 70.892998 72.927002 77.814003"
               y="0"
               id="tspan1179">Aire stationnement RV</tspan>
          </text>
        </g>
      </g>
      <g
         id="g1183">
        <g
           id="g1185"
           clip-path="url(#clipPath1189)">
          <path
             d="m 70.85,508.17 h 453.6 v 262.9 H 70.85 Z"
             style="fill:none;stroke:#d9d9d9;stroke-width:0.75;stroke-linecap:butt;stroke-linejoin:round;stroke-miterlimit:8;stroke-dasharray:none;stroke-opacity:1"
             id="path1191" />
        </g>
      </g>
    </g>
  </g>
</svg>
