<?xml version="1.0" encoding="UTF-8" standalone="no"?>
<svg
   xmlns:dc="http://purl.org/dc/elements/1.1/"
   xmlns:cc="http://creativecommons.org/ns#"
   xmlns:rdf="http://www.w3.org/1999/02/22-rdf-syntax-ns#"
   xmlns:svg="http://www.w3.org/2000/svg"
   xmlns="http://www.w3.org/2000/svg"
   id="svg4982"
   version="1.1"
   viewBox="0 0 210 297"
   height="297mm"
   width="210mm">
  <defs
     id="defs4976">
    <clipPath
       clipPathUnits="userSpaceOnUse"
       id="clipPath5000">
      <path
         d="M 8.871e-6,0 H 595.32001 V 841.92 H 8.871e-6 Z"
         id="path4998"
         style="clip-rule:evenodd" />
    </clipPath>
    <clipPath
       clipPathUnits="userSpaceOnUse"
       id="clipPath5018">
      <path
         d="M 70.8,509.4 H 524.4 V 771.12 H 70.8 Z"
         id="path5016"
         style="clip-rule:evenodd" />
    </clipPath>
    <clipPath
       clipPathUnits="userSpaceOnUse"
       id="clipPath5030">
      <path
         d="M 70.8,509.4 H 524.4 V 771.12 H 70.8 Z"
         id="path5028"
         style="clip-rule:evenodd" />
    </clipPath>
    <clipPath
       clipPathUnits="userSpaceOnUse"
       id="clipPath5046">
      <path
         d="M 70.8,509.4 H 524.4 V 771.12 H 70.8 Z"
         id="path5044"
         style="clip-rule:evenodd" />
    </clipPath>
    <clipPath
       clipPathUnits="userSpaceOnUse"
       id="clipPath5062">
      <path
         d="M 70.8,509.4 H 524.4 V 771.12 H 70.8 Z"
         id="path5060"
         style="clip-rule:evenodd" />
    </clipPath>
    <clipPath
       clipPathUnits="userSpaceOnUse"
       id="clipPath5078">
      <path
         d="M 70.8,509.4 H 524.4 V 771.12 H 70.8 Z"
         id="path5076"
         style="clip-rule:evenodd" />
    </clipPath>
    <clipPath
       clipPathUnits="userSpaceOnUse"
       id="clipPath5090">
      <path
         d="M 0,499.56 H 595.32 V 771.12 H 0 Z"
         id="path5088"
         style="clip-rule:evenodd" />
    </clipPath>
  </defs>
  <metadata
     id="metadata4979">
    <rdf:RDF>
      <cc:Work
         rdf:about="">
        <dc:format>image/svg+xml</dc:format>
        <dc:type
           rdf:resource="http://purl.org/dc/dcmitype/StillImage" />
        <dc:title></dc:title>
      </cc:Work>
    </rdf:RDF>
  </metadata>
  <g
     id="layer1">
    <g
       id="g4992"
       transform="matrix(0.35277777,0,0,-0.35277777,347.81117,546.22376)">
      <g
         id="g4994">
        <g
           id="g4996"
           clip-path="url(#clipPath5000)" />
      </g>
      <path
         d="m 70.85,509.32 h 453.6 V 771.07 H 70.85 Z"
         style="fill:#2a2a2a;fill-opacity:1;fill-rule:evenodd;stroke:none"
         id="path5002" />
      <path
         d="m 297.65,718.39 c 44.75,0 81.03,-36.27 81.03,-81.02 0,-44.75 -36.28,-81.03 -81.03,-81.03 -44.75,0 -81.03,36.28 -81.03,81.03 0,7.79 1.13,15.53 3.34,23 l 77.69,-23 z"
         style="fill:#4472c4;fill-opacity:1;fill-rule:evenodd;stroke:none"
         id="path5004" />
      <path
         d="m 297.65,718.39 c 44.75,0 81.03,-36.27 81.03,-81.02 0,-44.75 -36.28,-81.03 -81.03,-81.03 -44.75,0 -81.03,36.28 -81.03,81.03 0,7.79 1.13,15.53 3.34,23 l 77.69,-23 z"
         style="fill:none;stroke:#ffffff;stroke-width:1.55999994;stroke-linecap:butt;stroke-linejoin:round;stroke-miterlimit:10;stroke-dasharray:none;stroke-opacity:1"
         id="path5006" />
      <path
         d="m 219.96,660.37 c 10.19,34.41 41.8,58.02 77.69,58.02 v -81.02 z"
         style="fill:#ed7d31;fill-opacity:1;fill-rule:evenodd;stroke:none"
         id="path5008" />
      <path
         d="m 219.96,660.37 c 10.19,34.41 41.8,58.02 77.69,58.02 v -81.02 z"
         style="fill:none;stroke:#ffffff;stroke-width:1.55999994;stroke-linecap:butt;stroke-linejoin:round;stroke-miterlimit:10;stroke-dasharray:none;stroke-opacity:1"
         id="path5010" />
      <g
         id="g5012">
        <g
           id="g5014"
           clip-path="url(#clipPath5018)">
          <text
             transform="matrix(1,0,0,-1,351.89,559.8)"
             style="font-variant:normal;font-weight:normal;font-size:9px;font-family:Calibri;-inkscape-font-specification:Calibri;writing-mode:lr-tb;fill:#ffffff;fill-opacity:1;fill-rule:nonzero;stroke:none"
             id="text5022">
            <tspan
               x="0 4.5630002 9.1260004 11.376 15.939 20.502001"
               y="0"
               id="tspan5020">79,58%</tspan>
          </text>
        </g>
      </g>
      <g
         id="g5024">
        <g
           id="g5026"
           clip-path="url(#clipPath5030)">
          <text
             transform="matrix(1,0,0,-1,216.38,708.84)"
             style="font-variant:normal;font-weight:normal;font-size:9px;font-family:Calibri;-inkscape-font-specification:Calibri;writing-mode:lr-tb;fill:#ffffff;fill-opacity:1;fill-rule:nonzero;stroke:none"
             id="text5034">
            <tspan
               x="0 4.5630002 9.1260004 11.376 15.939 20.502001"
               y="0"
               id="tspan5032">20,42%</tspan>
          </text>
        </g>
      </g>
      <path
         d="m 207.7,742.54 h 179.91 v 22.53 H 207.7 Z"
         style="fill:#2a2a2a;fill-opacity:1;fill-rule:evenodd;stroke:none"
         id="path5036" />
      <path
         d="m 207.7,742.54 h 179.91 v 22.53 H 207.7 Z"
         style="fill:none;stroke:#2a2a2a;stroke-width:1;stroke-linecap:butt;stroke-linejoin:miter;stroke-miterlimit:8;stroke-dasharray:none;stroke-opacity:1"
         id="path5038" />
      <g
         id="g5040">
        <g
           id="g5042"
           clip-path="url(#clipPath5046)">
          <text
             transform="matrix(1,0,0,-1,210.82,748.32)"
             style="font-variant:normal;font-weight:normal;font-size:15.96000004px;font-family:Calibri;-inkscape-font-specification:Calibri;writing-mode:lr-tb;fill:#ffffff;fill-opacity:1;fill-rule:nonzero;stroke:none"
             id="text5050">
            <tspan
               x="0 9.8154001 17.635799 22.79088 30.43572 34.170361 37.873081 41.480042 49.859039 57.807121 66.186119 74.134201 82.513199 88.753563 96.701637 102.942 106.6128 114.9918 123.40272 131.78172 137.35176 142.85796 146.56068 151.93919 160.31821 165.61691"
               y="0"
               id="tspan5048">Détail dépenses nourriture</tspan>
          </text>
        </g>
      </g>
      <path
         d="m 226.33,521.29 h 4.9433 v 4.9433 H 226.33 Z"
         style="fill:#4472c4;fill-opacity:1;fill-rule:evenodd;stroke:none"
         id="path5052" />
      <path
         d="m 226.33,521.29 h 4.9433 v 4.9433 H 226.33 Z"
         style="fill:none;stroke:#ffffff;stroke-width:1.5;stroke-linecap:butt;stroke-linejoin:round;stroke-miterlimit:8;stroke-dasharray:none;stroke-opacity:1"
         id="path5054" />
      <g
         id="g5056">
        <g
           id="g5058"
           clip-path="url(#clipPath5062)">
          <text
             transform="matrix(1,0,0,-1,233.42,521.18)"
             style="font-variant:normal;font-weight:normal;font-size:9px;font-family:Calibri;-inkscape-font-specification:Calibri;writing-mode:lr-tb;fill:#ffffff;fill-opacity:1;fill-rule:nonzero;stroke:none"
             id="text5066">
            <tspan
               x="0 4.7969999 9.5939999 14.274 17.415001 20.871 25.424999 28.908001 30.941999 35.252998 37.323002 39.348 46.539001 51.102001 55.782001 58.797001 63.108002 65.141998 68.373001 72.809998"
               y="0"
               id="tspan5064">Courses alimentaires</tspan>
          </text>
        </g>
      </g>
      <path
         d="m 321.87,521.29 h 4.9433 v 4.9433 H 321.87 Z"
         style="fill:#ed7d31;fill-opacity:1;fill-rule:evenodd;stroke:none"
         id="path5068" />
      <path
         d="m 321.87,521.29 h 4.9433 v 4.9433 H 321.87 Z"
         style="fill:none;stroke:#ffffff;stroke-width:1.5;stroke-linecap:butt;stroke-linejoin:round;stroke-miterlimit:8;stroke-dasharray:none;stroke-opacity:1"
         id="path5070" />
      <g
         id="g5072">
        <g
           id="g5074"
           clip-path="url(#clipPath5078)">
          <text
             transform="matrix(1,0,0,-1,328.97,521.18)"
             style="font-variant:normal;font-weight:normal;font-size:9px;font-family:Calibri;-inkscape-font-specification:Calibri;writing-mode:lr-tb;fill:#ffffff;fill-opacity:1;fill-rule:nonzero;stroke:none"
             id="text5082">
            <tspan
               x="0 4.914 9.3509998 12.834 15.948 20.150999 24.938999 28.08 32.390999 37.062 40.077"
               y="0"
               id="tspan5080">Restaurants</tspan>
          </text>
        </g>
      </g>
      <g
         id="g5084">
        <g
           id="g5086"
           clip-path="url(#clipPath5090)">
          <path
             d="m 70.85,509.32 h 453.6 V 771.07 H 70.85 Z"
             style="fill:none;stroke:#d9d9d9;stroke-width:0.75;stroke-linecap:butt;stroke-linejoin:round;stroke-miterlimit:8;stroke-dasharray:none;stroke-opacity:1"
             id="path5092" />
        </g>
      </g>
    </g>
  </g>
</svg>
