<?xml version="1.0" encoding="UTF-8" standalone="no"?>
<svg
   xmlns:dc="http://purl.org/dc/elements/1.1/"
   xmlns:cc="http://creativecommons.org/ns#"
   xmlns:rdf="http://www.w3.org/1999/02/22-rdf-syntax-ns#"
   xmlns:svg="http://www.w3.org/2000/svg"
   xmlns="http://www.w3.org/2000/svg"
   id="svg4010"
   version="1.1"
   viewBox="0 0 210 297"
   height="297mm"
   width="210mm">
  <defs
     id="defs4004">
    <clipPath
       clipPathUnits="userSpaceOnUse"
       id="clipPath4028">
      <path
         d="M 8.871e-6,0 H 595.32001 V 841.92 H 8.871e-6 Z"
         id="path4026"
         style="clip-rule:evenodd" />
    </clipPath>
    <clipPath
       clipPathUnits="userSpaceOnUse"
       id="clipPath4058">
      <path
         d="M 70.8,508.2 H 524.4 V 771.12 H 70.8 Z"
         id="path4056"
         style="clip-rule:evenodd" />
    </clipPath>
    <clipPath
       clipPathUnits="userSpaceOnUse"
       id="clipPath4070">
      <path
         d="M 70.8,508.2 H 524.4 V 771.12 H 70.8 Z"
         id="path4068"
         style="clip-rule:evenodd" />
    </clipPath>
    <clipPath
       clipPathUnits="userSpaceOnUse"
       id="clipPath4082">
      <path
         d="M 70.8,508.2 H 524.4 V 771.12 H 70.8 Z"
         id="path4080"
         style="clip-rule:evenodd" />
    </clipPath>
    <clipPath
       clipPathUnits="userSpaceOnUse"
       id="clipPath4094">
      <path
         d="M 70.8,508.2 H 524.4 V 771.12 H 70.8 Z"
         id="path4092"
         style="clip-rule:evenodd" />
    </clipPath>
    <clipPath
       clipPathUnits="userSpaceOnUse"
       id="clipPath4106">
      <path
         d="M 70.8,508.2 H 524.4 V 771.12 H 70.8 Z"
         id="path4104"
         style="clip-rule:evenodd" />
    </clipPath>
    <clipPath
       clipPathUnits="userSpaceOnUse"
       id="clipPath4122">
      <path
         d="M 70.8,630.72 H 524.4 V 762.36 H 70.8 Z"
         id="path4120"
         style="clip-rule:evenodd" />
    </clipPath>
    <clipPath
       clipPathUnits="userSpaceOnUse"
       id="clipPath4138">
      <path
         d="M 70.8,508.2 H 524.4 V 771.12 H 70.8 Z"
         id="path4136"
         style="clip-rule:evenodd" />
    </clipPath>
    <clipPath
       clipPathUnits="userSpaceOnUse"
       id="clipPath4154">
      <path
         d="M 70.8,508.2 H 524.4 V 771.12 H 70.8 Z"
         id="path4152"
         style="clip-rule:evenodd" />
    </clipPath>
    <clipPath
       clipPathUnits="userSpaceOnUse"
       id="clipPath4170">
      <path
         d="M 70.8,508.2 H 524.4 V 771.12 H 70.8 Z"
         id="path4168"
         style="clip-rule:evenodd" />
    </clipPath>
    <clipPath
       clipPathUnits="userSpaceOnUse"
       id="clipPath4186">
      <path
         d="M 70.8,508.2 H 524.4 V 771.12 H 70.8 Z"
         id="path4184"
         style="clip-rule:evenodd" />
    </clipPath>
    <clipPath
       clipPathUnits="userSpaceOnUse"
       id="clipPath4202">
      <path
         d="M 70.8,508.2 H 524.4 V 771.12 H 70.8 Z"
         id="path4200"
         style="clip-rule:evenodd" />
    </clipPath>
    <clipPath
       clipPathUnits="userSpaceOnUse"
       id="clipPath4214">
      <path
         d="M 0,498 H 595.32 V 771.12 H 0 Z"
         id="path4212"
         style="clip-rule:evenodd" />
    </clipPath>
  </defs>
  <metadata
     id="metadata4007">
    <rdf:RDF>
      <cc:Work
         rdf:about="">
        <dc:format>image/svg+xml</dc:format>
        <dc:type
           rdf:resource="http://purl.org/dc/dcmitype/StillImage" />
        <dc:title></dc:title>
      </cc:Work>
    </rdf:RDF>
  </metadata>
  <g
     id="layer1">
    <g
       id="g4020"
       transform="matrix(0.35277777,0,0,-0.35277777,320.59689,545.26496)">
      <g
         id="g4022">
        <g
           id="g4024"
           clip-path="url(#clipPath4028)" />
      </g>
      <path
         d="m 70.85,508.17 h 453.6 v 262.9 H 70.85 Z"
         style="fill:#2a2a2a;fill-opacity:1;fill-rule:evenodd;stroke:none"
         id="path4030" />
      <path
         d="m 297.65,718.32 c 45.03,0 81.53,-36.5 81.53,-81.53 0,-45.02 -36.5,-81.53 -81.53,-81.53 -39.89,0 -73.93,28.87 -80.44,68.23 l 80.44,13.3 z"
         style="fill:#4472c4;fill-opacity:1;fill-rule:evenodd;stroke:none"
         id="path4032" />
      <path
         d="m 297.65,718.32 c 45.03,0 81.53,-36.5 81.53,-81.53 0,-45.02 -36.5,-81.53 -81.53,-81.53 -39.89,0 -73.93,28.87 -80.44,68.23 l 80.44,13.3 z"
         style="fill:none;stroke:#ffffff;stroke-width:1.55999994;stroke-linecap:butt;stroke-linejoin:round;stroke-miterlimit:10;stroke-dasharray:none;stroke-opacity:1"
         id="path4034" />
      <path
         d="m 217.21,623.49 c -3.68,22.25 2.03,45.04 15.76,62.93 l 64.68,-49.63 z"
         style="fill:#ed7d31;fill-opacity:1;fill-rule:evenodd;stroke:none"
         id="path4036" />
      <path
         d="m 217.21,623.49 c -3.68,22.25 2.03,45.04 15.76,62.93 l 64.68,-49.63 z"
         style="fill:none;stroke:#ffffff;stroke-width:1.55999994;stroke-linecap:butt;stroke-linejoin:round;stroke-miterlimit:10;stroke-dasharray:none;stroke-opacity:1"
         id="path4038" />
      <path
         d="m 232.97,686.42 c 8.28,10.8 19.13,19.34 31.56,24.87 l 33.12,-74.5 z"
         style="fill:#a5a5a5;fill-opacity:1;fill-rule:evenodd;stroke:none"
         id="path4040" />
      <path
         d="m 232.97,686.42 c 8.28,10.8 19.13,19.34 31.56,24.87 l 33.12,-74.5 z"
         style="fill:none;stroke:#ffffff;stroke-width:1.55999994;stroke-linecap:butt;stroke-linejoin:round;stroke-miterlimit:10;stroke-dasharray:none;stroke-opacity:1"
         id="path4042" />
      <path
         d="m 264.53,711.29 c 6.27,2.79 12.88,4.78 19.65,5.91 l 13.47,-80.41 z"
         style="fill:#ffc000;fill-opacity:1;fill-rule:evenodd;stroke:none"
         id="path4044" />
      <path
         d="m 264.53,711.29 c 6.27,2.79 12.88,4.78 19.65,5.91 l 13.47,-80.41 z"
         style="fill:none;stroke:#ffffff;stroke-width:1.55999994;stroke-linecap:butt;stroke-linejoin:round;stroke-miterlimit:10;stroke-dasharray:none;stroke-opacity:1"
         id="path4046" />
      <path
         d="m 284.18,717.2 c 4.45,0.75 8.96,1.12 13.47,1.12 v -81.53 z"
         style="fill:#5b9bd5;fill-opacity:1;fill-rule:evenodd;stroke:none"
         id="path4048" />
      <path
         d="m 284.18,717.2 c 4.45,0.75 8.96,1.12 13.47,1.12 v -81.53 z"
         style="fill:none;stroke:#ffffff;stroke-width:1.55999994;stroke-linecap:butt;stroke-linejoin:round;stroke-miterlimit:10;stroke-dasharray:none;stroke-opacity:1"
         id="path4050" />
      <g
         id="g4052">
        <g
           id="g4054"
           clip-path="url(#clipPath4058)">
          <text
             transform="matrix(1,0,0,-1,366.29,572.95)"
             style="font-variant:normal;font-weight:normal;font-size:9px;font-family:Calibri;-inkscape-font-specification:Calibri;writing-mode:lr-tb;fill:#ffffff;fill-opacity:1;fill-rule:nonzero;stroke:none"
             id="text4062">
            <tspan
               x="0 4.5630002 9.1260004 11.376 15.939 20.502001"
               y="0"
               id="tspan4060">71,09%</tspan>
          </text>
        </g>
      </g>
      <g
         id="g4064">
        <g
           id="g4066"
           clip-path="url(#clipPath4070)">
          <text
             transform="matrix(1,0,0,-1,184.22,656.06)"
             style="font-variant:normal;font-weight:normal;font-size:9px;font-family:Calibri;-inkscape-font-specification:Calibri;writing-mode:lr-tb;fill:#ffffff;fill-opacity:1;fill-rule:nonzero;stroke:none"
             id="text4074">
            <tspan
               x="0 4.5630002 9.1260004 11.376 15.939 20.502001"
               y="0"
               id="tspan4072">12,79%</tspan>
          </text>
        </g>
      </g>
      <g
         id="g4076">
        <g
           id="g4078"
           clip-path="url(#clipPath4082)">
          <text
             transform="matrix(1,0,0,-1,218.93,707.33)"
             style="font-variant:normal;font-weight:normal;font-size:9px;font-family:Calibri;-inkscape-font-specification:Calibri;writing-mode:lr-tb;fill:#ffffff;fill-opacity:1;fill-rule:nonzero;stroke:none"
             id="text4086">
            <tspan
               x="0 4.5630002 6.8130002 11.376 15.939"
               y="0"
               id="tspan4084">7,78%</tspan>
          </text>
        </g>
      </g>
      <g
         id="g4088">
        <g
           id="g4090"
           clip-path="url(#clipPath4094)">
          <text
             transform="matrix(1,0,0,-1,248.69,721.94)"
             style="font-variant:normal;font-weight:normal;font-size:9px;font-family:Calibri;-inkscape-font-specification:Calibri;writing-mode:lr-tb;fill:#ffffff;fill-opacity:1;fill-rule:nonzero;stroke:none"
             id="text4098">
            <tspan
               x="0 4.5630002 6.8130002 11.376 15.939"
               y="0"
               id="tspan4096">3,94%</tspan>
          </text>
        </g>
      </g>
      <g
         id="g4100">
        <g
           id="g4102"
           clip-path="url(#clipPath4106)">
          <text
             transform="matrix(1,0,0,-1,275.71,725.23)"
             style="font-variant:normal;font-weight:normal;font-size:9px;font-family:Calibri;-inkscape-font-specification:Calibri;writing-mode:lr-tb;fill:#ffffff;fill-opacity:1;fill-rule:nonzero;stroke:none"
             id="text4110">
            <tspan
               x="0 4.5630002 6.8130002 11.376 15.939"
               y="0"
               id="tspan4108">2,59%</tspan>
          </text>
        </g>
      </g>
      <path
         d="m 222.66,739.72 h 173.46 v 22.53 H 222.66 Z"
         style="fill:#2a2a2a;fill-opacity:1;fill-rule:evenodd;stroke:none"
         id="path4112" />
      <path
         d="m 222.66,739.72 h 173.46 v 22.53 H 222.66 Z"
         style="fill:none;stroke:#2a2a2a;stroke-width:1;stroke-linecap:butt;stroke-linejoin:miter;stroke-miterlimit:8;stroke-dasharray:none;stroke-opacity:1"
         id="path4114" />
      <g
         id="g4116">
        <g
           id="g4118"
           clip-path="url(#clipPath4122)">
          <text
             transform="matrix(1,0,0,-1,225.79,745.49)"
             style="font-variant:normal;font-weight:normal;font-size:15.96000004px;font-family:Calibri;-inkscape-font-specification:Calibri;writing-mode:lr-tb;fill:#ffffff;fill-opacity:1;fill-rule:nonzero;stroke:none"
             id="text4126">
            <tspan
               x="0 9.8154001 17.635799 22.79088 30.43572 34.170361 37.873081 41.480042 49.859039 57.807121 66.186119 74.134201 82.513199 88.753563 96.701637 102.942 106.6128 111.99132 117.1464 124.79124 133.21812 139.45848 147.83748 156.2484 161.81844"
               y="0"
               id="tspan4124">Détail dépenses transport</tspan>
          </text>
        </g>
      </g>
      <path
         d="m 118.01,522.53 h 4.9433 v 4.9433 H 118.01 Z"
         style="fill:#4472c4;fill-opacity:1;fill-rule:evenodd;stroke:none"
         id="path4128" />
      <path
         d="m 118.01,522.53 h 4.9433 v 4.9433 H 118.01 Z"
         style="fill:none;stroke:#ffffff;stroke-width:1.5;stroke-linecap:butt;stroke-linejoin:round;stroke-miterlimit:8;stroke-dasharray:none;stroke-opacity:1"
         id="path4130" />
      <g
         id="g4132">
        <g
           id="g4134"
           clip-path="url(#clipPath4138)">
          <text
             transform="matrix(1,0,0,-1,125.06,522.43)"
             style="font-variant:normal;font-weight:normal;font-size:9px;font-family:Calibri;-inkscape-font-specification:Calibri;writing-mode:lr-tb;fill:#ffffff;fill-opacity:1;fill-rule:nonzero;stroke:none"
             id="text4142">
            <tspan
               x="0 5.1570001 9.2250004 11.385 16.065001"
               y="0"
               id="tspan4140">Avion</tspan>
          </text>
        </g>
      </g>
      <path
         d="m 157.54,522.53 h 4.9433 v 4.9433 H 157.54 Z"
         style="fill:#ed7d31;fill-opacity:1;fill-rule:evenodd;stroke:none"
         id="path4144" />
      <path
         d="m 157.54,522.53 h 4.9433 v 4.9433 H 157.54 Z"
         style="fill:none;stroke:#ffffff;stroke-width:1.5;stroke-linecap:butt;stroke-linejoin:round;stroke-miterlimit:8;stroke-dasharray:none;stroke-opacity:1"
         id="path4146" />
      <g
         id="g4148">
        <g
           id="g4150"
           clip-path="url(#clipPath4154)">
          <text
             transform="matrix(1,0,0,-1,164.62,522.43)"
             style="font-variant:normal;font-weight:normal;font-size:9px;font-family:Calibri;-inkscape-font-specification:Calibri;writing-mode:lr-tb;fill:#ffffff;fill-opacity:1;fill-rule:nonzero;stroke:none"
             id="text4158">
            <tspan
               x="0 4.6529999 8.9910002 12.132 16.191 18.233999 23.021999"
               y="0"
               id="tspan4156">Parking</tspan>
          </text>
        </g>
      </g>
      <path
         d="m 203.47,522.53 h 4.9433 v 4.9433 H 203.47 Z"
         style="fill:#a5a5a5;fill-opacity:1;fill-rule:evenodd;stroke:none"
         id="path4160" />
      <path
         d="m 203.47,522.53 h 4.9433 v 4.9433 H 203.47 Z"
         style="fill:none;stroke:#ffffff;stroke-width:1.5;stroke-linecap:butt;stroke-linejoin:round;stroke-miterlimit:8;stroke-dasharray:none;stroke-opacity:1"
         id="path4162" />
      <g
         id="g4164">
        <g
           id="g4166"
           clip-path="url(#clipPath4170)">
          <text
             transform="matrix(1,0,0,-1,210.55,522.43)"
             style="font-variant:normal;font-weight:normal;font-size:9px;font-family:Calibri;-inkscape-font-specification:Calibri;writing-mode:lr-tb;fill:#ffffff;fill-opacity:1;fill-rule:nonzero;stroke:none"
             id="text4174">
            <tspan
               x="0 5.1570001 12.348 16.910999 21.591 26.379"
               y="0"
               id="tspan4172">Amende</tspan>
          </text>
        </g>
      </g>
      <path
         d="m 253,522.53 h 4.9433 v 4.9433 H 253 Z"
         style="fill:#ffc000;fill-opacity:1;fill-rule:evenodd;stroke:none"
         id="path4176" />
      <path
         d="m 253,522.53 h 4.9433 v 4.9433 H 253 Z"
         style="fill:none;stroke:#ffffff;stroke-width:1.5;stroke-linecap:butt;stroke-linejoin:round;stroke-miterlimit:8;stroke-dasharray:none;stroke-opacity:1"
         id="path4178" />
      <g
         id="g4180">
        <g
           id="g4182"
           clip-path="url(#clipPath4186)">
          <text
             transform="matrix(1,0,0,-1,260.09,522.43)"
             style="font-variant:normal;font-weight:normal;font-size:9px;font-family:Calibri;-inkscape-font-specification:Calibri;writing-mode:lr-tb;fill:#ffffff;fill-opacity:1;fill-rule:nonzero;stroke:none"
             id="text4190">
            <tspan
               x="0 4.428 7.5689998 11.88 16.551001 20.034 24.822001 29.502001 32.733002 35.748001 37.782001 42.209999 46.889999 48.924 52.757999 57.546001 64.628998 71.82 76.616997"
               y="0"
               id="tspan4188">Transport en commun</tspan>
          </text>
        </g>
      </g>
      <path
         d="m 353.1,522.53 h 4.9433 v 4.9433 H 353.1 Z"
         style="fill:#5b9bd5;fill-opacity:1;fill-rule:evenodd;stroke:none"
         id="path4192" />
      <path
         d="m 353.1,522.53 h 4.9433 v 4.9433 H 353.1 Z"
         style="fill:none;stroke:#ffffff;stroke-width:1.5;stroke-linecap:butt;stroke-linejoin:round;stroke-miterlimit:8;stroke-dasharray:none;stroke-opacity:1"
         id="path4194" />
      <g
         id="g4196">
        <g
           id="g4198"
           clip-path="url(#clipPath4202)">
          <text
             transform="matrix(1,0,0,-1,360.22,522.43)"
             style="font-variant:normal;font-weight:normal;font-size:9px;font-family:Calibri;-inkscape-font-specification:Calibri;writing-mode:lr-tb;fill:#ffffff;fill-opacity:1;fill-rule:nonzero;stroke:none"
             id="text4206">
            <tspan
               x="0 4.428 8.6309996 12.582"
               y="0"
               id="tspan4204">Taxi</tspan>
          </text>
        </g>
      </g>
      <g
         id="g4208">
        <g
           id="g4210"
           clip-path="url(#clipPath4214)">
          <path
             d="m 70.85,508.17 h 453.6 v 262.9 H 70.85 Z"
             style="fill:none;stroke:#d9d9d9;stroke-width:0.75;stroke-linecap:butt;stroke-linejoin:round;stroke-miterlimit:8;stroke-dasharray:none;stroke-opacity:1"
             id="path4216" />
        </g>
      </g>
    </g>
  </g>
</svg>
