<?xml version="1.0" encoding="UTF-8" standalone="no"?>
<svg
   xmlns:dc="http://purl.org/dc/elements/1.1/"
   xmlns:cc="http://creativecommons.org/ns#"
   xmlns:rdf="http://www.w3.org/1999/02/22-rdf-syntax-ns#"
   xmlns:svg="http://www.w3.org/2000/svg"
   xmlns="http://www.w3.org/2000/svg"
   viewBox="0 0 793.76001 1122.5601"
   height="1122.5601"
   width="793.76001"
   xml:space="preserve"
   id="svg4686"
   version="1.1"><metadata
     id="metadata4692"><rdf:RDF><cc:Work
         rdf:about=""><dc:format>image/svg+xml</dc:format><dc:type
           rdf:resource="http://purl.org/dc/dcmitype/StillImage" /><dc:title></dc:title></cc:Work></rdf:RDF></metadata><defs
     id="defs4690"><clipPath
       id="clipPath4702"
       clipPathUnits="userSpaceOnUse"><path
         style="clip-rule:evenodd"
         id="path4700"
         d="M 8.871e-6,0 H 595.32001 V 841.92 H 8.871e-6 Z" /></clipPath><clipPath
       id="clipPath4748"
       clipPathUnits="userSpaceOnUse"><path
         style="clip-rule:evenodd"
         id="path4746"
         d="M 70.8,507.48 H 524.4 V 771.12 H 70.8 Z" /></clipPath><clipPath
       id="clipPath4760"
       clipPathUnits="userSpaceOnUse"><path
         style="clip-rule:evenodd"
         id="path4758"
         d="M 70.8,507.48 H 524.4 V 771.12 H 70.8 Z" /></clipPath><clipPath
       id="clipPath4772"
       clipPathUnits="userSpaceOnUse"><path
         style="clip-rule:evenodd"
         id="path4770"
         d="M 70.8,507.48 H 524.4 V 771.12 H 70.8 Z" /></clipPath><clipPath
       id="clipPath4784"
       clipPathUnits="userSpaceOnUse"><path
         style="clip-rule:evenodd"
         id="path4782"
         d="M 70.8,507.48 H 524.4 V 771.12 H 70.8 Z" /></clipPath><clipPath
       id="clipPath4796"
       clipPathUnits="userSpaceOnUse"><path
         style="clip-rule:evenodd"
         id="path4794"
         d="M 70.8,507.48 H 524.4 V 771.12 H 70.8 Z" /></clipPath><clipPath
       id="clipPath4808"
       clipPathUnits="userSpaceOnUse"><path
         style="clip-rule:evenodd"
         id="path4806"
         d="M 70.8,507.48 H 524.4 V 771.12 H 70.8 Z" /></clipPath><clipPath
       id="clipPath4820"
       clipPathUnits="userSpaceOnUse"><path
         style="clip-rule:evenodd"
         id="path4818"
         d="M 70.8,507.48 H 524.4 V 771.12 H 70.8 Z" /></clipPath><clipPath
       id="clipPath4832"
       clipPathUnits="userSpaceOnUse"><path
         style="clip-rule:evenodd"
         id="path4830"
         d="M 70.8,507.48 H 524.4 V 771.12 H 70.8 Z" /></clipPath><clipPath
       id="clipPath4848"
       clipPathUnits="userSpaceOnUse"><path
         style="clip-rule:evenodd"
         id="path4846"
         d="M 70.8,507.48 H 524.4 V 771.12 H 70.8 Z" /></clipPath><clipPath
       id="clipPath4864"
       clipPathUnits="userSpaceOnUse"><path
         style="clip-rule:evenodd"
         id="path4862"
         d="M 70.8,507.48 H 524.4 V 771.12 H 70.8 Z" /></clipPath><clipPath
       id="clipPath4880"
       clipPathUnits="userSpaceOnUse"><path
         style="clip-rule:evenodd"
         id="path4878"
         d="M 70.8,507.48 H 524.4 V 771.12 H 70.8 Z" /></clipPath><clipPath
       id="clipPath4896"
       clipPathUnits="userSpaceOnUse"><path
         style="clip-rule:evenodd"
         id="path4894"
         d="M 70.8,507.48 H 524.4 V 771.12 H 70.8 Z" /></clipPath><clipPath
       id="clipPath4912"
       clipPathUnits="userSpaceOnUse"><path
         style="clip-rule:evenodd"
         id="path4910"
         d="M 70.8,507.48 H 524.4 V 771.12 H 70.8 Z" /></clipPath><clipPath
       id="clipPath4928"
       clipPathUnits="userSpaceOnUse"><path
         style="clip-rule:evenodd"
         id="path4926"
         d="M 70.8,507.48 H 524.4 V 771.12 H 70.8 Z" /></clipPath><clipPath
       id="clipPath4944"
       clipPathUnits="userSpaceOnUse"><path
         style="clip-rule:evenodd"
         id="path4942"
         d="M 70.8,507.48 H 524.4 V 771.12 H 70.8 Z" /></clipPath><clipPath
       id="clipPath4960"
       clipPathUnits="userSpaceOnUse"><path
         style="clip-rule:evenodd"
         id="path4958"
         d="M 70.8,507.48 H 524.4 V 771.12 H 70.8 Z" /></clipPath><clipPath
       id="clipPath4972"
       clipPathUnits="userSpaceOnUse"><path
         style="clip-rule:evenodd"
         id="path4970"
         d="M 0,498 H 595.32 V 771.12 H 0 Z" /></clipPath></defs><g
     transform="matrix(1.3333333,0,0,-1.3333333,0,1122.56)"
     id="g4694"><g
       id="g4696"><g
         clip-path="url(#clipPath4702)"
         id="g4698" /></g><path
       id="path4704"
       style="fill:#2a2a2a;fill-opacity:1;fill-rule:evenodd;stroke:none"
       d="m 70.85,507.42 h 453.6 V 771.07 H 70.85 Z" /><path
       id="path4706"
       style="fill:none;stroke:#a6a6a6;stroke-width:0.75;stroke-linecap:butt;stroke-linejoin:round;stroke-miterlimit:10;stroke-dasharray:none;stroke-opacity:1"
       d="m 275.82,651.3 124.52,43.13" /><path
       id="path4708"
       style="fill:none;stroke:#a6a6a6;stroke-width:0.75;stroke-linecap:butt;stroke-linejoin:round;stroke-miterlimit:10;stroke-dasharray:none;stroke-opacity:1"
       d="M 275.82,621.54 400.34,578.41" /><path
       id="path4710"
       style="fill:#4472c4;fill-opacity:1;fill-rule:evenodd;stroke:none"
       d="m 275.82,621.54 c -8.22,-44.46 -50.92,-73.83 -95.37,-65.62 -44.46,8.22 -73.83,50.92 -65.61,95.38 4.99,26.99 23.17,49.69 48.43,60.44 l 32.06,-75.32 z" /><path
       id="path4712"
       style="fill:none;stroke:#ffffff;stroke-width:1.55999994;stroke-linecap:butt;stroke-linejoin:round;stroke-miterlimit:10;stroke-dasharray:none;stroke-opacity:1"
       d="m 275.82,621.54 c -8.22,-44.46 -50.92,-73.83 -95.37,-65.62 -44.46,8.22 -73.83,50.92 -65.61,95.38 4.99,26.99 23.17,49.69 48.43,60.44 l 32.06,-75.32 z" /><path
       id="path4714"
       style="fill:#ed7d31;fill-opacity:1;fill-rule:evenodd;stroke:none"
       d="m 163.27,711.74 c 32.23,13.71 69.6,5.41 92.99,-20.66 l -60.93,-54.66 z" /><path
       id="path4716"
       style="fill:none;stroke:#ffffff;stroke-width:1.55999994;stroke-linecap:butt;stroke-linejoin:round;stroke-miterlimit:10;stroke-dasharray:none;stroke-opacity:1"
       d="m 163.27,711.74 c 32.23,13.71 69.6,5.41 92.99,-20.66 l -60.93,-54.66 z" /><path
       id="path4718"
       style="fill:#a5a5a5;fill-opacity:1;fill-rule:evenodd;stroke:none"
       d="m 256.26,691.08 c 7.35,-8.19 12.97,-17.79 16.53,-28.2 l -77.46,-26.46 z" /><path
       id="path4720"
       style="fill:none;stroke:#ffffff;stroke-width:1.55999994;stroke-linecap:butt;stroke-linejoin:round;stroke-miterlimit:10;stroke-dasharray:none;stroke-opacity:1"
       d="m 256.26,691.08 c 7.35,-8.19 12.97,-17.79 16.53,-28.2 l -77.46,-26.46 z" /><path
       id="path4722"
       style="fill:#ffc000;fill-opacity:1;fill-rule:evenodd;stroke:none"
       d="m 272.79,662.88 c 1.29,-3.78 2.31,-7.65 3.03,-11.58 l -80.49,-14.88 z" /><path
       id="path4724"
       style="fill:none;stroke:#ffffff;stroke-width:1.55999994;stroke-linecap:butt;stroke-linejoin:round;stroke-miterlimit:10;stroke-dasharray:none;stroke-opacity:1"
       d="m 272.79,662.88 c 1.29,-3.78 2.31,-7.65 3.03,-11.58 l -80.49,-14.88 z" /><path
       id="path4726"
       style="fill:#5b9bd5;fill-opacity:1;fill-rule:evenodd;stroke:none"
       d="m 480.81,625.26 c -6.17,-33.34 -38.19,-55.38 -71.53,-49.21 -19.38,3.58 -35.85,16.24 -44.3,34.03 l 55.46,26.34 z" /><path
       id="path4728"
       style="fill:none;stroke:#ffffff;stroke-width:1.55999994;stroke-linecap:butt;stroke-linejoin:round;stroke-miterlimit:10;stroke-dasharray:none;stroke-opacity:1"
       d="m 480.81,625.26 c -6.17,-33.34 -38.19,-55.38 -71.53,-49.21 -19.38,3.58 -35.85,16.24 -44.3,34.03 l 55.46,26.34 z" /><path
       id="path4730"
       style="fill:#70ad47;fill-opacity:1;fill-rule:evenodd;stroke:none"
       d="m 364.98,610.08 c -11.37,23.94 -6.09,52.47 13.08,70.76 l 42.38,-44.42 z" /><path
       id="path4732"
       style="fill:none;stroke:#ffffff;stroke-width:1.55999994;stroke-linecap:butt;stroke-linejoin:round;stroke-miterlimit:10;stroke-dasharray:none;stroke-opacity:1"
       d="m 364.98,610.08 c -11.37,23.94 -6.09,52.47 13.08,70.76 l 42.38,-44.42 z" /><path
       id="path4734"
       style="fill:#264478;fill-opacity:1;fill-rule:evenodd;stroke:none"
       d="m 378.06,680.84 c 24.53,23.4 63.39,22.49 86.8,-2.05 13.6,-14.25 19.53,-34.16 15.95,-53.53 l -60.37,11.16 z" /><path
       id="path4736"
       style="fill:none;stroke:#ffffff;stroke-width:1.55999994;stroke-linecap:butt;stroke-linejoin:round;stroke-miterlimit:10;stroke-dasharray:none;stroke-opacity:1"
       d="m 378.06,680.84 c 24.53,23.4 63.39,22.49 86.8,-2.05 13.6,-14.25 19.53,-34.16 15.95,-53.53 l -60.37,11.16 z" /><path
       id="path4738"
       style="fill:#9e480e;fill-opacity:1;fill-rule:evenodd;stroke:none"
       d="m 275.82,651.3 c 1.82,-9.84 1.82,-19.93 0,-29.76 l -80.49,14.88 z" /><path
       id="path4740"
       style="fill:none;stroke:#ffffff;stroke-width:1.55999994;stroke-linecap:butt;stroke-linejoin:round;stroke-miterlimit:10;stroke-dasharray:none;stroke-opacity:1"
       d="m 275.82,651.3 c 1.82,-9.84 1.82,-19.93 0,-29.76 l -80.49,14.88 z" /><g
       id="g4742"><g
         clip-path="url(#clipPath4748)"
         id="g4744"><text
           id="text4752"
           style="font-variant:normal;font-weight:normal;font-size:9px;font-family:Calibri;-inkscape-font-specification:Calibri;writing-mode:lr-tb;fill:#ffffff;fill-opacity:1;fill-rule:nonzero;stroke:none"
           transform="matrix(1,0,0,-1,111.22,559.92)"><tspan
             id="tspan4750"
             y="0"
             x="0 4.5630002 9.1260004 11.376 15.939 20.502001">65,70%</tspan></text>
</g></g><g
       id="g4754"><g
         clip-path="url(#clipPath4760)"
         id="g4756"><text
           id="text4764"
           style="font-variant:normal;font-weight:normal;font-size:9px;font-family:Calibri;-inkscape-font-specification:Calibri;writing-mode:lr-tb;fill:#ffffff;fill-opacity:1;fill-rule:nonzero;stroke:none"
           transform="matrix(1,0,0,-1,211.66,723.48)"><tspan
             id="tspan4762"
             y="0"
             x="0 4.5630002 9.1260004 11.376 15.939 20.502001">19,77%</tspan></text>
</g></g><g
       id="g4766"><g
         clip-path="url(#clipPath4772)"
         id="g4768"><text
           id="text4776"
           style="font-variant:normal;font-weight:normal;font-size:9px;font-family:Calibri;-inkscape-font-specification:Calibri;writing-mode:lr-tb;fill:#ffffff;fill-opacity:1;fill-rule:nonzero;stroke:none"
           transform="matrix(1,0,0,-1,272.76,680.52)"><tspan
             id="tspan4774"
             y="0"
             x="0 4.5630002 6.8130002 11.376 15.939">6,40%</tspan></text>
</g></g><g
       id="g4778"><g
         clip-path="url(#clipPath4784)"
         id="g4780"><text
           id="text4788"
           style="font-variant:normal;font-weight:normal;font-size:9px;font-family:Calibri;-inkscape-font-specification:Calibri;writing-mode:lr-tb;fill:#ffffff;fill-opacity:1;fill-rule:nonzero;stroke:none"
           transform="matrix(1,0,0,-1,281.78,656.74)"><tspan
             id="tspan4786"
             y="0"
             x="0 4.5630002 6.8130002 11.376 15.939">2,33%</tspan></text>
</g></g><g
       id="g4790"><g
         clip-path="url(#clipPath4796)"
         id="g4792"><text
           id="text4800"
           style="font-variant:normal;font-weight:normal;font-size:9px;font-family:Calibri;-inkscape-font-specification:Calibri;writing-mode:lr-tb;fill:#ffffff;fill-opacity:1;fill-rule:nonzero;stroke:none"
           transform="matrix(1,0,0,-1,423.31,563.04)"><tspan
             id="tspan4798"
             y="0"
             x="0 4.5630002 6.8130002 11.376 15.939">2,33%</tspan></text>
</g></g><g
       id="g4802"><g
         clip-path="url(#clipPath4808)"
         id="g4804"><text
           id="text4812"
           style="font-variant:normal;font-weight:normal;font-size:9px;font-family:Calibri;-inkscape-font-specification:Calibri;writing-mode:lr-tb;fill:#ffffff;fill-opacity:1;fill-rule:nonzero;stroke:none"
           transform="matrix(1,0,0,-1,331.32,646.25)"><tspan
             id="tspan4810"
             y="0"
             x="0 4.5630002 6.8130002 11.376 15.939">1,16%</tspan></text>
</g></g><g
       id="g4814"><g
         clip-path="url(#clipPath4820)"
         id="g4816"><text
           id="text4824"
           style="font-variant:normal;font-weight:normal;font-size:9px;font-family:Calibri;-inkscape-font-specification:Calibri;writing-mode:lr-tb;fill:#ffffff;fill-opacity:1;fill-rule:nonzero;stroke:none"
           transform="matrix(1,0,0,-1,454.39,696.53)"><tspan
             id="tspan4822"
             y="0"
             x="0 4.5630002 6.8130002 11.376 15.939">2,33%</tspan></text>
</g></g><g
       id="g4826"><g
         clip-path="url(#clipPath4832)"
         id="g4828"><text
           id="text4836"
           style="font-variant:normal;font-weight:normal;font-size:9px;font-family:Calibri;-inkscape-font-specification:Calibri;writing-mode:lr-tb;fill:#ffffff;fill-opacity:1;fill-rule:nonzero;stroke:none"
           transform="matrix(1,0,0,-1,284.59,633.36)"><tspan
             id="tspan4834"
             y="0"
             x="0 4.5630002 6.8130002 11.376 15.939">5,82%</tspan></text>
</g></g><path
       id="path4838"
       style="fill:#2a2a2a;fill-opacity:1;fill-rule:evenodd;stroke:none"
       d="m 255.66,742.54 h 83.975 v 22.53 H 255.66 Z" /><path
       id="path4840"
       style="fill:none;stroke:#2a2a2a;stroke-width:1;stroke-linecap:butt;stroke-linejoin:miter;stroke-miterlimit:8;stroke-dasharray:none;stroke-opacity:1"
       d="m 255.66,742.54 h 83.975 v 22.53 H 255.66 Z" /><g
       id="g4842"><g
         clip-path="url(#clipPath4848)"
         id="g4844"><text
           id="text4852"
           style="font-variant:normal;font-weight:normal;font-size:15.96000004px;font-family:Calibri;-inkscape-font-specification:Calibri;writing-mode:lr-tb;fill:#ffffff;fill-opacity:1;fill-rule:nonzero;stroke:none"
           transform="matrix(1,0,0,-1,258.7,748.32)"><tspan
             id="tspan4850"
             y="0"
             x="0 8.6822395 12.35304 16.07172 23.71656 32.14344 35.750401 48.502441 56.258999 61.541759 69.489838">Bilan météo</tspan></text>
</g></g><path
       id="path4854"
       style="fill:#4472c4;fill-opacity:1;fill-rule:evenodd;stroke:none"
       d="m 103.32,519.39 h 4.9433 v 4.9433 H 103.32 Z" /><path
       id="path4856"
       style="fill:none;stroke:#ffffff;stroke-width:1.5;stroke-linecap:butt;stroke-linejoin:round;stroke-miterlimit:8;stroke-dasharray:none;stroke-opacity:1"
       d="m 103.32,519.39 h 4.9433 v 4.9433 H 103.32 Z" /><g
       id="g4858"><g
         clip-path="url(#clipPath4864)"
         id="g4860"><text
           id="text4868"
           style="font-variant:normal;font-weight:normal;font-size:9px;font-family:Calibri;-inkscape-font-specification:Calibri;writing-mode:lr-tb;fill:#ffffff;fill-opacity:1;fill-rule:nonzero;stroke:none"
           transform="matrix(1,0,0,-1,110.38,519.29)"><tspan
             id="tspan4866"
             y="0"
             x="0 4.428 9.1079998 12.591 17.379 19.422001 23.858999 26.01 28.052999 30.096001">Ensoleillé</tspan></text>
</g></g><path
       id="path4870"
       style="fill:#ed7d31;fill-opacity:1;fill-rule:evenodd;stroke:none"
       d="m 154.39,519.39 h 4.9433 v 4.9433 H 154.39 Z" /><path
       id="path4872"
       style="fill:none;stroke:#ffffff;stroke-width:1.5;stroke-linecap:butt;stroke-linejoin:round;stroke-miterlimit:8;stroke-dasharray:none;stroke-opacity:1"
       d="m 154.39,519.39 h 4.9433 v 4.9433 H 154.39 Z" /><g
       id="g4874"><g
         clip-path="url(#clipPath4880)"
         id="g4876"><text
           id="text4884"
           style="font-variant:normal;font-weight:normal;font-size:9px;font-family:Calibri;-inkscape-font-specification:Calibri;writing-mode:lr-tb;fill:#ffffff;fill-opacity:1;fill-rule:nonzero;stroke:none"
           transform="matrix(1,0,0,-1,161.45,519.29)"><tspan
             id="tspan4882"
             y="0"
             x="0 5.7600002 10.548 14.859 19.070999 23.507999 27.099001 29.132999 33.578999 36.594002 38.627998 42.813 47.493 49.535999 54.09 56.132999">Nuages et Soleil</tspan></text>
</g></g><path
       id="path4886"
       style="fill:#a5a5a5;fill-opacity:1;fill-rule:evenodd;stroke:none"
       d="m 229.05,519.39 h 4.9433 v 4.9433 H 229.05 Z" /><path
       id="path4888"
       style="fill:none;stroke:#ffffff;stroke-width:1.5;stroke-linecap:butt;stroke-linejoin:round;stroke-miterlimit:8;stroke-dasharray:none;stroke-opacity:1"
       d="m 229.05,519.39 h 4.9433 v 4.9433 H 229.05 Z" /><g
       id="g4890"><g
         clip-path="url(#clipPath4896)"
         id="g4892"><text
           id="text4900"
           style="font-variant:normal;font-weight:normal;font-size:9px;font-family:Calibri;-inkscape-font-specification:Calibri;writing-mode:lr-tb;fill:#ffffff;fill-opacity:1;fill-rule:nonzero;stroke:none"
           transform="matrix(1,0,0,-1,236.14,519.29)"><tspan
             id="tspan4898"
             y="0"
             x="0 4.7969999 6.8400002 11.394 13.437 15.471 20.52 25.308001 27.351 29.393999">Ciel Voilé</tspan></text>
</g></g><path
       id="path4902"
       style="fill:#ffc000;fill-opacity:1;fill-rule:evenodd;stroke:none"
       d="m 279.41,519.39 h 4.9433 v 4.9433 H 279.41 Z" /><path
       id="path4904"
       style="fill:none;stroke:#ffffff;stroke-width:1.5;stroke-linecap:butt;stroke-linejoin:round;stroke-miterlimit:8;stroke-dasharray:none;stroke-opacity:1"
       d="m 279.41,519.39 h 4.9433 v 4.9433 H 279.41 Z" /><g
       id="g4906"><g
         clip-path="url(#clipPath4912)"
         id="g4908"><text
           id="text4916"
           style="font-variant:normal;font-weight:normal;font-size:9px;font-family:Calibri;-inkscape-font-specification:Calibri;writing-mode:lr-tb;fill:#ffffff;fill-opacity:1;fill-rule:nonzero;stroke:none"
           transform="matrix(1,0,0,-1,286.51,519.29)"><tspan
             id="tspan4914"
             y="0"
             x="0 4.428 7.5689998 11.988 15.471 17.504999 23.382 28.062 32.373001 36.584999 41.139 45.819">Très Nuageux</tspan></text>
</g></g><path
       id="path4918"
       style="fill:#5b9bd5;fill-opacity:1;fill-rule:evenodd;stroke:none"
       d="m 345.62,519.39 h 4.9433 v 4.9433 H 345.62 Z" /><path
       id="path4920"
       style="fill:none;stroke:#ffffff;stroke-width:1.5;stroke-linecap:butt;stroke-linejoin:round;stroke-miterlimit:8;stroke-dasharray:none;stroke-opacity:1"
       d="m 345.62,519.39 h 4.9433 v 4.9433 H 345.62 Z" /><g
       id="g4922"><g
         clip-path="url(#clipPath4928)"
         id="g4924"><text
           id="text4932"
           style="font-variant:normal;font-weight:normal;font-size:9px;font-family:Calibri;-inkscape-font-specification:Calibri;writing-mode:lr-tb;fill:#ffffff;fill-opacity:1;fill-rule:nonzero;stroke:none"
           transform="matrix(1,0,0,-1,352.73,519.29)"><tspan
             id="tspan4930"
             y="0"
             x="0 4.6529999 6.723 11.403 13.554 17.990999 20.025 22.77 27.099001 29.142 33.821999 35.973">Pluie faible</tspan></text>
</g></g><path
       id="path4934"
       style="fill:#70ad47;fill-opacity:1;fill-rule:evenodd;stroke:none"
       d="m 402.5,519.39 h 4.9433 v 4.9433 H 402.5 Z" /><path
       id="path4936"
       style="fill:none;stroke:#ffffff;stroke-width:1.5;stroke-linecap:butt;stroke-linejoin:round;stroke-miterlimit:8;stroke-dasharray:none;stroke-opacity:1"
       d="m 402.5,519.39 h 4.9433 v 4.9433 H 402.5 Z" /><g
       id="g4938"><g
         clip-path="url(#clipPath4944)"
         id="g4940"><text
           id="text4948"
           style="font-variant:normal;font-weight:normal;font-size:9px;font-family:Calibri;-inkscape-font-specification:Calibri;writing-mode:lr-tb;fill:#ffffff;fill-opacity:1;fill-rule:nonzero;stroke:none"
           transform="matrix(1,0,0,-1,409.61,519.29)"><tspan
             id="tspan4946"
             y="0"
             x="0 4.6529999 6.723 11.403 13.554 17.990999 20.025 24.471001 29.259001 33.57 36.710999 40.175999">Pluie éparse</tspan></text>
</g></g><path
       id="path4950"
       style="fill:#264478;fill-opacity:1;fill-rule:evenodd;stroke:none"
       d="m 463.64,519.39 h 4.9433 v 4.9433 H 463.64 Z" /><path
       id="path4952"
       style="fill:none;stroke:#ffffff;stroke-width:1.5;stroke-linecap:butt;stroke-linejoin:round;stroke-miterlimit:8;stroke-dasharray:none;stroke-opacity:1"
       d="m 463.64,519.39 h 4.9433 v 4.9433 H 463.64 Z" /><g
       id="g4954"><g
         clip-path="url(#clipPath4960)"
         id="g4956"><text
           id="text4964"
           style="font-variant:normal;font-weight:normal;font-size:9px;font-family:Calibri;-inkscape-font-specification:Calibri;writing-mode:lr-tb;fill:#ffffff;fill-opacity:1;fill-rule:nonzero;stroke:none"
           transform="matrix(1,0,0,-1,470.76,519.29)"><tspan
             id="tspan4962"
             y="0"
             x="0 5.1570001 9.2250004 13.788 16.929001 20.385">Averse</tspan></text>
</g></g><g
       id="g4966"><g
         clip-path="url(#clipPath4972)"
         id="g4968"><path
           id="path4974"
           style="fill:none;stroke:#d9d9d9;stroke-width:0.75;stroke-linecap:butt;stroke-linejoin:round;stroke-miterlimit:8;stroke-dasharray:none;stroke-opacity:1"
           d="m 70.85,507.42 h 453.6 V 771.07 H 70.85 Z" /></g></g></g></svg>